<svg width="130" height="140" viewBox="0 0 130 140" xmlns="http://www.w3.org/2000/svg">
  <defs>
    <linearGradient id="pg" x1="0%" y1="0%" x2="0%" y2="100%">
      <stop offset="0%" stop-color="#17D4C0"/><stop offset="100%" stop-color="#0FA898"/>
    </linearGradient>
  </defs>
  <path d="M65,14 C42,14 24,32 24,55 C24,71 33,84 45,94 C52,99 58,103 62,106 C63,107 64,107 65,107 C66,107 67,107 68,106 C72,103 78,99 85,94 C97,84 106,71 106,55 C106,32 88,14 65,14Z" fill="url(#pg)"/>
  <circle cx="65" cy="52" r="25" fill="#07100F" opacity="0.28"/>
  <rect x="54" y="53" width="22" height="16" rx="1" fill="#EEF9F8"/>
  <polygon points="50,54 65,39 80,54" fill="#EEF9F8"/>
  <rect x="60" y="59" width="10" height="10" rx="1" fill="url(#pg)"/>
  <rect x="71" y="44" width="5" height="8" rx="1" fill="#EEF9F8"/>
  <rect x="55" y="56" width="6" height="5" rx="0.5" fill="url(#pg)" opacity="0.5"/>
</svg>
